<mxfile host="app.diagrams.net" modified="2023-06-12T17:03:56.465Z" agent="Mozilla/5.0 (Windows NT 10.0; Win64; x64) AppleWebKit/537.36 (KHTML, like Gecko) Chrome/114.0.0.0 Safari/537.36" etag="LSBpGqUpuJPSGhnfVdB4" version="21.3.4" type="github">
  <diagram name="PÃ¡gina-1" id="qwl1IcfZls67ELvJ4X7s">
    <mxGraphModel dx="320" dy="175" grid="0" gridSize="10" guides="1" tooltips="1" connect="1" arrows="1" fold="1" page="1" pageScale="1" pageWidth="827" pageHeight="1169" math="0" shadow="0">
      <root>
        <mxCell id="0" />
        <mxCell id="1" parent="0" />
        <mxCell id="ik07vG9wPHbzTE4S57W--4" style="edgeStyle=orthogonalEdgeStyle;rounded=0;orthogonalLoop=1;jettySize=auto;html=1;entryX=1;entryY=0.5;entryDx=0;entryDy=0;exitX=1;exitY=0.5;exitDx=0;exitDy=0;" edge="1" parent="1" source="ik07vG9wPHbzTE4S57W--1" target="ik07vG9wPHbzTE4S57W--2">
          <mxGeometry relative="1" as="geometry">
            <Array as="points">
              <mxPoint x="540" y="85" />
              <mxPoint x="540" y="180" />
            </Array>
          </mxGeometry>
        </mxCell>
        <mxCell id="ik07vG9wPHbzTE4S57W--1" value="System" style="rounded=0;whiteSpace=wrap;html=1;" vertex="1" parent="1">
          <mxGeometry x="360" y="70" width="80" height="30" as="geometry" />
        </mxCell>
        <mxCell id="ik07vG9wPHbzTE4S57W--10" style="edgeStyle=orthogonalEdgeStyle;rounded=0;orthogonalLoop=1;jettySize=auto;html=1;entryX=0;entryY=0.5;entryDx=0;entryDy=0;exitX=0;exitY=0.5;exitDx=0;exitDy=0;" edge="1" parent="1" source="ik07vG9wPHbzTE4S57W--2" target="ik07vG9wPHbzTE4S57W--1">
          <mxGeometry relative="1" as="geometry">
            <Array as="points">
              <mxPoint x="260" y="180" />
              <mxPoint x="260" y="85" />
            </Array>
          </mxGeometry>
        </mxCell>
        <mxCell id="ik07vG9wPHbzTE4S57W--2" value="" style="rounded=0;whiteSpace=wrap;html=1;dashed=1;dashPattern=8 8;" vertex="1" parent="1">
          <mxGeometry x="280" y="120" width="240" height="120" as="geometry" />
        </mxCell>
        <mxCell id="ik07vG9wPHbzTE4S57W--8" style="edgeStyle=orthogonalEdgeStyle;rounded=0;orthogonalLoop=1;jettySize=auto;html=1;entryX=0;entryY=0.5;entryDx=0;entryDy=0;exitX=0;exitY=0.5;exitDx=0;exitDy=0;" edge="1" parent="1" source="ik07vG9wPHbzTE4S57W--5" target="ik07vG9wPHbzTE4S57W--6">
          <mxGeometry relative="1" as="geometry" />
        </mxCell>
        <mxCell id="ik07vG9wPHbzTE4S57W--5" value="Optimization" style="rounded=0;whiteSpace=wrap;html=1;" vertex="1" parent="1">
          <mxGeometry x="355" y="130" width="90" height="40" as="geometry" />
        </mxCell>
        <mxCell id="ik07vG9wPHbzTE4S57W--9" style="edgeStyle=orthogonalEdgeStyle;rounded=0;orthogonalLoop=1;jettySize=auto;html=1;entryX=1;entryY=0.5;entryDx=0;entryDy=0;exitX=1;exitY=0.5;exitDx=0;exitDy=0;" edge="1" parent="1" source="ik07vG9wPHbzTE4S57W--6" target="ik07vG9wPHbzTE4S57W--5">
          <mxGeometry relative="1" as="geometry" />
        </mxCell>
        <mxCell id="ik07vG9wPHbzTE4S57W--6" value="Model" style="rounded=0;whiteSpace=wrap;html=1;" vertex="1" parent="1">
          <mxGeometry x="355" y="190" width="90" height="40" as="geometry" />
        </mxCell>
        <mxCell id="ik07vG9wPHbzTE4S57W--11" value="&lt;font style=&quot;font-size: 10px;&quot;&gt;Optimal Input&lt;/font&gt;" style="text;html=1;align=center;verticalAlign=middle;resizable=0;points=[];autosize=1;strokeColor=none;fillColor=none;" vertex="1" parent="1">
          <mxGeometry x="255" y="60" width="80" height="30" as="geometry" />
        </mxCell>
        <mxCell id="ik07vG9wPHbzTE4S57W--12" value="&lt;font style=&quot;font-size: 10px;&quot;&gt;MPC&lt;br&gt;Controller&lt;/font&gt;" style="text;html=1;strokeColor=none;fillColor=none;align=center;verticalAlign=middle;whiteSpace=wrap;rounded=0;" vertex="1" parent="1">
          <mxGeometry x="280" y="120" width="47" height="30" as="geometry" />
        </mxCell>
        <mxCell id="ik07vG9wPHbzTE4S57W--13" value="&lt;font style=&quot;font-size: 10px;&quot;&gt;Control Actions&lt;/font&gt;" style="text;html=1;strokeColor=none;fillColor=none;align=center;verticalAlign=middle;whiteSpace=wrap;rounded=0;" vertex="1" parent="1">
          <mxGeometry x="294" y="170" width="40" height="20" as="geometry" />
        </mxCell>
        <mxCell id="ik07vG9wPHbzTE4S57W--14" value="&lt;font style=&quot;font-size: 10px;&quot;&gt;Prediction&lt;/font&gt;" style="text;html=1;strokeColor=none;fillColor=none;align=center;verticalAlign=middle;whiteSpace=wrap;rounded=0;" vertex="1" parent="1">
          <mxGeometry x="465" y="168.75" width="55" height="22.5" as="geometry" />
        </mxCell>
      </root>
    </mxGraphModel>
  </diagram>
</mxfile>
